<?xml version="1.0" encoding="UTF-8" standalone="no"?><!DOCTYPE svg PUBLIC "-//W3C//DTD SVG 1.1//EN" "http://www.w3.org/Graphics/SVG/1.1/DTD/svg11.dtd"><svg width="100%" height="100%" viewBox="0 0 90 90" version="1.1" xmlns="http://www.w3.org/2000/svg" xmlns:xlink="http://www.w3.org/1999/xlink" xml:space="preserve" xmlns:serif="http://www.serif.com/" style="fill-rule:evenodd;clip-rule:evenodd;stroke-linejoin:round;stroke-miterlimit:2;"><g transform="matrix(1.10824,0,0,1.10824,45,0)"><path d="M0,81.209C-22.425,81.209 -40.605,63.03 -40.605,40.604C-40.605,18.179 -22.425,0 0,0C22.425,0 40.605,18.179 40.605,40.604C40.605,63.03 22.425,81.209 0,81.209" style="fill:#f8f7ff;fill-rule:nonzero;"/></g><g transform="matrix(1.10824,0,0,1.10824,51.6493,72.1512)"><path d="M0,-49C-1.734,-49 -3.334,-48.633 -4.8,-47.9C-6.267,-47.166 -7.534,-45.883 -8.6,-44.05C-9.667,-42.216 -10.5,-39.716 -11.1,-36.55C-11.7,-33.383 -12,-29.366 -12,-24.5C-12,-19.766 -11.7,-15.85 -11.1,-12.75C-10.5,-9.65 -9.667,-7.2 -8.6,-5.4C-7.534,-3.6 -6.267,-2.333 -4.8,-1.6C-3.334,-0.866 -1.734,-0.5 0,-0.5C2,-0.5 3.883,-0.866 5.65,-1.6C7.416,-2.333 8.95,-3.315 10.25,-4.55C11.55,-5.783 12.583,-7.183 13.35,-8.75C14.116,-10.315 14.5,-11.9 14.5,-13.5L17,-13.5C17,-11.5 16.55,-9.565 15.65,-7.7C14.75,-5.833 13.466,-4.183 11.8,-2.75C10.133,-1.315 8.133,-0.166 5.8,0.7C3.466,1.565 0.866,2 -2,2C-10.534,2 -17.167,-0.35 -21.9,-5.05C-26.634,-9.75 -29,-16.233 -29,-24.5C-29,-32.766 -26.634,-39.25 -21.9,-43.95C-17.167,-48.65 -10.534,-51 -2,-51C1.266,-51 4.065,-50.683 6.4,-50.05C8.733,-49.416 10.65,-48.583 12.15,-47.55C13.65,-46.516 14.75,-45.35 15.45,-44.05C16.15,-42.75 16.5,-41.4 16.5,-40C16.5,-37.733 15.815,-35.916 14.45,-34.55C13.083,-33.183 11.266,-32.5 9,-32.5C8.466,-32.5 7.95,-32.516 7.45,-32.55C6.95,-32.583 6.533,-32.633 6.2,-32.7C5.733,-32.766 5.333,-32.866 5,-33L5,-48C4.6,-48.133 4.133,-48.3 3.6,-48.5C3.133,-48.633 2.6,-48.75 2,-48.85C1.4,-48.95 0.733,-49 0,-49" style="fill:#9381ff;fill-rule:nonzero;"/></g></svg>